# xmcd
#
# Track frame offsets: 
#        150
#        9195
#        21293
#        34168
#        46573
#        57288
#        67795
#        77655
#        91055
#        103963
#
# Disc length: 1523 seconds
#
# Revision: 0
# Processed by: cddbd v1.5.2PL0 Copyright (c) Steve Scherf et al.
# Submitted via: ExactAudioCopy v1.0b3
#
DISCID=6905f10a
DTITLE=Mac Davis - A Man Don't Cry
DYEAR=1994
DGENRE=Country
TTITLE0=Why Can't I be like the Others
TTITLE1=A Man Don't Cry
TTITLE2=Once was the Time of Man
TTITLE3=Standing in the Need of Love
TTITLE4=Hey Monkey
TTITLE5=Honey Love
TTITLE6=Lookin' At Linda
TTITLE7=You're Riding for a Fall
TTITLE8=Poor Loser
TTITLE9=With a Little Touch of Love
EXTD=
EXTT0=
EXTT1=
EXTT2=
EXTT3=
EXTT4=
EXTT5=
EXTT6=
EXTT7=
EXTT8=
EXTT9=
PLAYORDER=
